<?xml version="1.0" encoding="utf-8"?>
<svg version="1.1" xmlns:xlink="http://www.w3.org/1999/xlink" width="18px" height="18px" preserveAspectRatio="xMinYMid meet" viewBox="315 288  18 16" xmlns="http://www.w3.org/2000/svg">
  <path d="M 324.5 298  L 324.5 332  " stroke-width="1" stroke="#0033ff" fill="none" />
  <path d="M 324.5 293  A 3 3 0 0 0 321.5 296 A 3 3 0 0 0 324.5 299 A 3 3 0 0 0 327.5 296 A 3 3 0 0 0 324.5 293 Z M 324.5 294  A 2 2 0 0 1 326.5 296 A 2 2 0 0 1 324.5 298 A 2 2 0 0 1 322.5 296 A 2 2 0 0 1 324.5 294 Z M 318.2 331  L 324.5 337  L 330.8 331  L 318.2 331  Z " fill-rule="nonzero" fill="#0033ff" stroke="none" />
</svg>