<?xml version="1.0" encoding="utf-8"?>
<svg version="1.1" xmlns:xlink="http://www.w3.org/1999/xlink" width="18px" height="18px" preserveAspectRatio="xMinYMid meet" viewBox="315 392  18 16" xmlns="http://www.w3.org/2000/svg">
  <path d="M 324.5 402  L 324.5 856  " stroke-width="1" stroke="#0033ff" fill="none" />
  <path d="M 324.5 397  A 3 3 0 0 0 321.5 400 A 3 3 0 0 0 324.5 403 A 3 3 0 0 0 327.5 400 A 3 3 0 0 0 324.5 397 Z M 324.5 398  A 2 2 0 0 1 326.5 400 A 2 2 0 0 1 324.5 402 A 2 2 0 0 1 322.5 400 A 2 2 0 0 1 324.5 398 Z M 318.2 855  L 324.5 861  L 330.8 855  L 318.2 855  Z " fill-rule="nonzero" fill="#0033ff" stroke="none" />
</svg>