<?xml version="1.0" encoding="utf-8"?>
<svg version="1.1" xmlns:xlink="http://www.w3.org/1999/xlink" width="10px" height="374px" preserveAspectRatio="xMidYMin meet" viewBox="320 921  8 374" xmlns="http://www.w3.org/2000/svg">
  <path d="M 324.5 926  L 324.5 1285  " stroke-width="1" stroke="#0033ff" fill="none" />
  <path d="M 324.5 921  A 3 3 0 0 0 321.5 924 A 3 3 0 0 0 324.5 927 A 3 3 0 0 0 327.5 924 A 3 3 0 0 0 324.5 921 Z M 324.5 922  A 2 2 0 0 1 326.5 924 A 2 2 0 0 1 324.5 926 A 2 2 0 0 1 322.5 924 A 2 2 0 0 1 324.5 922 Z M 318.2 1284  L 324.5 1290  L 330.8 1284  L 318.2 1284  Z " fill-rule="nonzero" fill="#0033ff" stroke="none" />
</svg>