<?xml version="1.0" encoding="utf-8"?>
<svg version="1.1" xmlns:xlink="http://www.w3.org/1999/xlink" width="19px" height="18px" preserveAspectRatio="xMinYMid meet" viewBox="318 1620  19 16" xmlns="http://www.w3.org/2000/svg">
  <path d="M 327.5 1355  L 327.5 1626.5  A 1.5 1.5 0 0 1 326 1628.5 " stroke-width="1" stroke="#0033ff" fill="none" />
  <path d="M 327.5 1350  A 3 3 0 0 0 324.5 1353 A 3 3 0 0 0 327.5 1356 A 3 3 0 0 0 330.5 1353 A 3 3 0 0 0 327.5 1350 Z M 327.5 1351  A 2 2 0 0 1 329.5 1353 A 2 2 0 0 1 327.5 1355 A 2 2 0 0 1 325.5 1353 A 2 2 0 0 1 327.5 1351 Z M 330 1622.2  L 324 1628.5  L 330 1634.8  L 330 1622.2  Z " fill-rule="nonzero" fill="#0033ff" stroke="none" />
</svg>