<?xml version="1.0" encoding="utf-8"?>
<svg version="1.1" xmlns:xlink="http://www.w3.org/1999/xlink" width="110px" height="70px" xmlns="http://www.w3.org/2000/svg">
  <g transform="matrix(1 0 0 1 -1033 -263 )">
    <path d="M 1043.5 332.5  L 1142.5 332.5  L 1142.5 273.5  L 1137.5 273.5  L 1137.5 268.5  L 1132.5 268.5  L 1132.5 263.5  L 1033.5 263.5  L 1033.5 322.5  L 1038.5 322.5  L 1038.5 327.5  L 1043.5 327.5  L 1043.5 332.5  Z " fill-rule="nonzero" fill="#a0bcf2" stroke="none" />
    <path d="M 1043.5 332.5  L 1142.5 332.5  L 1142.5 273.5  L 1137.5 273.5  L 1137.5 268.5  L 1132.5 268.5  L 1132.5 263.5  L 1033.5 263.5  L 1033.5 322.5  L 1038.5 322.5  L 1038.5 327.5  L 1043.5 327.5  L 1043.5 332.5  Z " stroke-width="1" stroke="#797979" fill="none" />
    <path d="M 1137.5 274  L 1137.5 327.5  L 1044 327.5  M 1132.5 269  L 1132.5 322.5  L 1039 322.5  " stroke-width="1" stroke="#797979" fill="none" />
  </g>
</svg>