<?xml version="1.0" encoding="utf-8"?>
<svg version="1.1" xmlns:xlink="http://www.w3.org/1999/xlink" width="29px" height="24px" xmlns="http://www.w3.org/2000/svg">
  <g transform="matrix(1 0 0 1 -217 -217 )">
    <path d="M 8.82083333333333 4.875  C 9.38472222222222 5.45833333333333  9.66666666666667 6.16666666666666  9.66666666666667 7  C 9.66666666666667 7.83333333333333  9.38472222222222 8.54166666666667  8.82083333333333 9.125  C 8.25694444444445 9.70833333333334  7.57222222222222 10  6.76666666666667 10  C 5.96111111111111 10  5.27638888888889 9.70833333333334  4.7125 9.125  C 4.14861111111111 8.54166666666667  3.86666666666667 7.83333333333333  3.86666666666667 7  C 3.86666666666667 6.16666666666666  4.14861111111111 5.45833333333333  4.7125 4.875  C 5.27638888888889 4.29166666666666  5.96111111111111 4  6.76666666666667 4  C 7.57222222222222 4  8.25694444444445 4.29166666666666  8.82083333333333 4.875  Z M 18.85 6.5  L 25.1333333333333 13  L 25.1333333333333 20  L 3.86666666666667 20  L 3.86666666666667 17  L 8.7 12  L 11.1166666666667 14.5  L 18.85 6.5  Z M 26.9231770833333 2.1484375  C 26.8275173611111 2.04947916666666  26.7142361111111 2  26.5833333333333 2  L 2.41666666666667 2  C 2.28576388888889 2  2.17248263888889 2.04947916666666  2.07682291666667 2.1484375  C 1.98116319444444 2.24739583333333  1.93333333333333 2.36458333333333  2 2.5  L 2 21.5  C 1.93333333333333 21.6354166666667  1.98116319444444 21.7526041666667  2.07682291666667 21.8515625  C 2.17248263888889 21.9505208333333  2.28576388888889 22  2.41666666666667 22  L 26.5833333333333 22  C 26.7142361111111 22  26.8275173611111 21.9505208333333  26.9231770833333 21.8515625  C 27.0188368055556 21.7526041666667  27.0666666666667 21.6354166666667  27 21.5  L 27 2.5  C 27.0666666666667 2.36458333333333  27.0188368055556 2.24739583333333  26.9231770833333 2.1484375  Z M 28.2901041666667 0.734375000000001  C 28.7633680555556 1.22395833333333  29 1.8125  29 2.5  L 29 21.5  C 29 22.1875  28.7633680555556 22.7760416666667  28.2901041666667 23.265625  C 27.8168402777778 23.7552083333333  27.2479166666667 24  26.5833333333333 24  L 2.41666666666667 24  C 1.75208333333333 24  1.18315972222222 23.7552083333333  0.709895833333333 23.265625  C 0.236631944444444 22.7760416666667  0 22.1875  0 21.5  L 0 2.5  C 0 1.8125  0.236631944444444 1.22395833333333  0.709895833333333 0.734375000000001  C 1.18315972222222 0.244791666666664  1.75208333333333 0  2.41666666666667 0  L 26.5833333333333 0  C 27.2479166666667 0  27.8168402777778 0.244791666666664  28.2901041666667 0.734375000000001  Z " fill-rule="nonzero" fill="#000000" stroke="none" fill-opacity="0.419607843137255" transform="matrix(1 0 0 1 217 217 )" />
  </g>
</svg>