<?xml version="1.0" encoding="utf-8"?>
<svg version="1.1" xmlns:xlink="http://www.w3.org/1999/xlink" width="24px" height="24px" xmlns="http://www.w3.org/2000/svg">
  <g transform="matrix(1 0 0 1 -304 -217 )">
    <path d="M 0.953124999999999 7.34375  C 0.317708333333336 8.82291666666667  0 10.375  0 12  C 0 13.625  0.317708333333336 15.1770833333333  0.953124999999999 16.65625  C 1.58854166666667 18.1354166666667  2.44270833333333 19.4114583333333  3.515625 20.484375  C 4.58854166666667 21.5572916666667  5.86458333333333 22.4114583333333  7.34375 23.046875  C 8.82291666666666 23.6822916666667  10.375 24  12 24  C 13.7916666666667 24  15.4947916666667 23.6223958333333  17.109375 22.8671875  C 18.7239583333333 22.1119791666667  20.0989583333333 21.046875  21.234375 19.671875  C 21.3072916666667 19.5677083333333  21.3411458333333 19.4505208333333  21.3359375 19.3203125  C 21.3307291666667 19.1901041666667  21.2864583333333 19.0833333333333  21.203125 19  L 19.0625 16.84375  C 18.9583333333333 16.75  18.828125 16.703125  18.671875 16.703125  C 18.5052083333333 16.7239583333333  18.3854166666667 16.7864583333333  18.3125 16.890625  C 17.5520833333333 17.8802083333333  16.6197916666667 18.6458333333333  15.515625 19.1875  C 14.4114583333333 19.7291666666667  13.2395833333333 20  12 20  C 10.9166666666667 20  9.8828125 19.7890625  8.8984375 19.3671875  C 7.9140625 18.9453125  7.0625 18.375  6.34375 17.65625  C 5.625 16.9375  5.0546875 16.0859375  4.6328125 15.1015625  C 4.2109375 14.1171875  4 13.0833333333333  4 12  C 4 10.9166666666667  4.2109375 9.8828125  4.6328125 8.8984375  C 5.0546875 7.9140625  5.625 7.0625  6.34375 6.34375  C 7.0625 5.625  7.9140625 5.0546875  8.8984375 4.6328125  C 9.8828125 4.2109375  10.9166666666667 4  12 4  C 13.0208333333333 4  14 4.18489583333333  14.9375 4.5546875  C 15.875 4.92447916666666  16.7083333333333 5.453125  17.4375 6.140625  L 15.296875 8.296875  C 14.9739583333333 8.609375  14.9010416666667 8.96875  15.078125 9.375  C 15.2552083333333 9.79166666666667  15.5625 10  16 10  L 23 10  C 23.2708333333333 10  23.5052083333333 9.90104166666667  23.703125 9.703125  C 23.9010416666667 9.50520833333333  24 9.27083333333333  24 9  L 24 2  C 24 1.5625  23.7916666666667 1.25520833333333  23.375 1.078125  C 22.96875 0.901041666666664  22.609375 0.973958333333333  22.296875 1.296875  L 20.265625 3.3125  C 19.1510416666667 2.26041666666666  17.8776041666667 1.4453125  16.4453125 0.8671875  C 15.0130208333333 0.289062500000001  13.53125 0  12 0  C 10.375 0  8.82291666666666 0.317708333333333  7.34375 0.953124999999999  C 5.86458333333333 1.58854166666667  4.58854166666667 2.44270833333333  3.515625 3.515625  C 2.44270833333333 4.58854166666667  1.58854166666667 5.86458333333333  0.953124999999999 7.34375  Z " fill-rule="nonzero" fill="#000000" stroke="none" fill-opacity="0.419607843137255" transform="matrix(1 0 0 1 304 217 )" />
  </g>
</svg>