<?xml version="1.0" encoding="utf-8"?>
<svg version="1.1" xmlns:xlink="http://www.w3.org/1999/xlink" width="24px" height="24px" xmlns="http://www.w3.org/2000/svg">
  <g transform="matrix(1 0 0 1 -348 -217 )">
    <path d="M 10.8028846153846 2.05907172995781  C 10.9855769230769 2.27285513361463  11.0769230769231 2.52601969057665  11 2.81856540084388  L 11 21.1814345991561  C 11.0769230769231 21.4739803094233  10.9855769230769 21.7271448663854  10.8028846153846 21.9409282700422  C 10.6201923076923 22.154711673699  10.4038461538462 22.2616033755274  10.1538461538462 22.2616033755274  C 9.90384615384616 22.2616033755274  9.6875 22.154711673699  9.50480769230769 21.9409282700422  L 4.70192307692308 16.3206751054852  L 0.923076923076923 16.3206751054852  C 0.673076923076923 16.3206751054852  0.456730769230769 16.2137834036568  0.274038461538462 16  C 0.0913461538461538 15.7862165963432  0 15.5330520393812  0 15.2405063291139  L 0 8.75949367088608  C 0 8.46694796061885  0.0913461538461538 8.21378340365682  0.274038461538462 8  C 0.456730769230769 7.78621659634318  0.673076923076923 7.67932489451477  0.923076923076923 7.67932489451477  L 4.70192307692308 7.67932489451477  L 9.50480769230769 2.05907172995781  C 9.6875 1.84528832630098  9.90384615384616 1.73839662447257  10.1538461538462 1.73839662447257  C 10.4038461538462 1.73839662447257  10.6201923076923 1.84528832630098  10.8028846153846 2.05907172995781  Z M 16.0024038461538 9.60337552742616  C 16.4110576923077 10.3459915611814  16.6153846153846 11.1448663853727  16.6153846153846 12  C 16.6153846153846 12.8551336146273  16.4110576923077 13.6511954992968  16.0024038461538 14.3881856540084  C 15.59375 15.1251758087201  15.0528846153846 15.6511954992968  14.3798076923077 15.9662447257384  C 14.2836538461539 16.0225035161744  14.1634615384615 16.0506329113924  14.0192307692308 16.0506329113924  C 13.7692307692308 16.0506329113924  13.5528846153846 15.9465541490858  13.3701923076923 15.7383966244726  C 13.1875 15.5302390998593  13.0961538461538 15.2742616033755  13.0961538461538 14.9704641350211  C 13.0961538461538 14.7341772151899  13.1538461538462 14.5344585091421  13.2692307692308 14.3713080168776  C 13.3846153846154 14.2081575246132  13.5240384615385 14.0675105485232  13.6875 13.9493670886076  C 13.8509615384615 13.831223628692  14.0144230769231 13.7018284106892  14.1778846153846 13.5611814345992  C 14.3413461538462 13.4205344585091  14.4807692307692 13.2180028129395  14.5961538461538 12.9535864978903  C 14.7115384615385 12.6891701828411  14.7692307692308 12.3713080168776  14.7692307692308 12  C 14.7692307692308 11.6286919831224  14.7115384615385 11.3108298171589  14.5961538461538 11.0464135021097  C 14.4807692307692 10.7819971870605  14.3413461538462 10.5794655414909  14.1778846153846 10.4388185654008  C 14.0144230769231 10.2981715893108  13.8509615384615 10.168776371308  13.6875 10.0506329113924  C 13.5240384615385 9.93248945147679  13.3846153846154 9.79184247538678  13.2692307692308 9.62869198312236  C 13.1538461538462 9.46554149085794  13.0961538461538 9.26582278481013  13.0961538461538 9.0295358649789  C 13.0961538461538 8.72573839662447  13.1875 8.46976090014065  13.3701923076923 8.26160337552743  C 13.5528846153846 8.0534458509142  13.7692307692308 7.94936708860759  14.0192307692308 7.94936708860759  C 14.1634615384615 7.94936708860759  14.2836538461539 7.9774964838256  14.3798076923077 8.0337552742616  C 15.0528846153846 8.33755274261604  15.59375 8.86075949367089  16.0024038461538 9.60337552742616  Z M 19.0817307692308 7.23206751054852  C 19.8990384615385 8.68917018284107  20.3076923076923 10.2784810126582  20.3076923076923 12  C 20.3076923076923 13.7215189873418  19.8990384615385 15.3108298171589  19.0817307692308 16.7679324894515  C 18.2644230769231 18.225035161744  17.1826923076923 19.2855133614627  15.8365384615385 19.9493670886076  C 15.7115384615385 20.0056258790436  15.5913461538462 20.0337552742616  15.4759615384615 20.0337552742616  C 15.2163461538462 20.0337552742616  14.9951923076923 19.9268635724332  14.8125 19.7130801687764  C 14.6298076923077 19.4992967651195  14.5384615384615 19.2461322081575  14.5384615384615 18.9535864978903  C 14.5384615384615 18.5147679324895  14.7259615384615 18.182841068917  15.1009615384615 17.957805907173  C 15.6394230769231 17.6315049226442  16.0048076923077 17.3839662447257  16.1971153846154 17.2151898734177  C 16.9086538461539 16.6075949367089  17.4639423076923 15.845288326301  17.8629807692308 14.9282700421941  C 18.2620192307692 14.0112517580872  18.4615384615385 13.0351617440225  18.4615384615385 12  C 18.4615384615385 10.9648382559775  18.2620192307692 9.9887482419128  17.8629807692308 9.07172995780591  C 17.4639423076923 8.15471167369902  16.9086538461539 7.39240506329114  16.1971153846154 6.78481012658228  C 16.0048076923077 6.61603375527426  15.6394230769231 6.36849507735584  15.1009615384615 6.042194092827  C 14.7259615384615 5.81715893108298  14.5384615384615 5.48523206751055  14.5384615384615 5.0464135021097  C 14.5384615384615 4.75386779184247  14.6298076923077 4.50070323488045  14.8125 4.28691983122363  C 14.9951923076923 4.07313642756681  15.2115384615385 3.9662447257384  15.4615384615385 3.9662447257384  C 15.5865384615385 3.9662447257384  15.7115384615385 3.9943741209564  15.8365384615385 4.05063291139241  C 17.1826923076923 4.71448663853727  18.2644230769231 5.77496483825597  19.0817307692308 7.23206751054852  Z M 22.1682692307692 4.86919831223629  C 23.3894230769231 7.0351617440225  24 9.41209563994374  24 12  C 24 14.5879043600563  23.3894230769231 16.9648382559775  22.1682692307692 19.1308016877637  C 20.9471153846154 21.2967651195499  19.3221153846154 22.8917018284107  17.2932692307692 23.915611814346  C 17.1682692307692 23.971870604782  17.0432692307692 24  16.9182692307692 24  C 16.6682692307692 24  16.4519230769231 23.8931082981716  16.2692307692308 23.6793248945148  C 16.0865384615385 23.4655414908579  15.9951923076923 23.2123769338959  15.9951923076923 22.9198312236287  C 15.9951923076923 22.5147679324894  16.1826923076923 22.182841068917  16.5576923076923 21.9240506329114  C 16.625 21.8790436005626  16.7331730769231 21.8199718706048  16.8822115384615 21.746835443038  C 17.03125 21.6736990154712  17.1394230769231 21.6146272855134  17.2067307692308 21.5696202531646  C 17.6490384615385 21.2883263009845  18.0432692307692 21.0014064697609  18.3894230769231 20.7088607594937  C 19.5721153846154 19.6849507735584  20.4951923076923 18.407876230661  21.1586538461538 16.8776371308017  C 21.8221153846154 15.3473980309423  22.1538461538462 13.7215189873418  22.1538461538462 12  C 22.1538461538462 10.2784810126582  21.8221153846154 8.65260196905767  21.1586538461538 7.12236286919831  C 20.4951923076923 5.59212376933896  19.5721153846154 4.31504922644163  18.3894230769231 3.29113924050633  C 18.0432692307692 2.9985935302391  17.6490384615385 2.71167369901547  17.2067307692308 2.43037974683544  C 17.1394230769231 2.38537271448664  17.03125 2.32630098452883  16.8822115384615 2.25316455696203  C 16.7331730769231 2.18002812939522  16.625 2.12095639943741  16.5576923076923 2.07594936708861  C 16.1826923076923 1.81715893108298  15.9951923076923 1.48523206751055  15.9951923076923 1.08016877637131  C 15.9951923076923 0.787623066104076  16.0865384615385 0.534458509142051  16.2692307692308 0.320675105485232  C 16.4519230769231 0.10689170182841  16.6682692307692 0  16.9182692307692 0  C 17.0432692307692 0  17.1682692307692 0.0281293952180013  17.2932692307692 0.0843881856540092  C 19.3221153846154 1.10829817158931  20.9471153846154 2.70323488045007  22.1682692307692 4.86919831223629  Z " fill-rule="nonzero" fill="#000000" stroke="none" fill-opacity="0.419607843137255" transform="matrix(1 0 0 1 348 217 )" />
  </g>
</svg>