<?xml version="1.0" encoding="utf-8"?>
<svg version="1.1" xmlns:xlink="http://www.w3.org/1999/xlink" width="20px" height="20px" xmlns="http://www.w3.org/2000/svg">
  <g transform="matrix(1 0 0 1 -478 -271 )">
    <path d="M 2.75111607142857 16.4985795454545  C 2.8218005952381 16.5885416666667  2.85714285714286 16.6950757575758  2.85714285714286 16.8181818181818  L 2.85714285714286 19.5454545454545  C 2.85714285714286 19.6685606060606  2.8218005952381 19.7750946969697  2.75111607142857 19.8650568181818  C 2.68043154761905 19.9550189393939  2.59672619047619 20  2.5 20  L 0.357142857142857 20  C 0.260416666666667 20  0.17671130952381 19.9550189393939  0.106026785714286 19.8650568181818  C 0.0353422619047619 19.7750946969697  0 19.6685606060606  0 19.5454545454545  L 0 16.8181818181818  C 0 16.6950757575758  0.0353422619047619 16.5885416666667  0.106026785714286 16.4985795454545  C 0.17671130952381 16.4086174242424  0.260416666666667 16.3636363636364  0.357142857142857 16.3636363636364  L 2.5 16.3636363636364  C 2.59672619047619 16.3636363636364  2.68043154761905 16.4086174242424  2.75111607142857 16.4985795454545  Z M 2.75111607142857 11.0440340909091  C 2.8218005952381 11.1339962121212  2.85714285714286 11.2405303030303  2.85714285714286 11.3636363636364  L 2.85714285714286 14.0909090909091  C 2.85714285714286 14.2140151515151  2.8218005952381 14.3205492424242  2.75111607142857 14.4105113636364  C 2.68043154761905 14.5004734848485  2.59672619047619 14.5454545454545  2.5 14.5454545454545  L 0.357142857142857 14.5454545454545  C 0.260416666666667 14.5454545454545  0.17671130952381 14.5004734848485  0.106026785714286 14.4105113636364  C 0.0353422619047619 14.3205492424242  0 14.2140151515151  0 14.0909090909091  L 0 11.3636363636364  C 0 11.2405303030303  0.0353422619047619 11.1339962121212  0.106026785714286 11.0440340909091  C 0.17671130952381 10.954071969697  0.260416666666667 10.9090909090909  0.357142857142857 10.9090909090909  L 2.5 10.9090909090909  C 2.59672619047619 10.9090909090909  2.68043154761905 10.954071969697  2.75111607142857 11.0440340909091  Z M 2.75111607142857 5.58948863636363  C 2.8218005952381 5.67945075757576  2.85714285714286 5.78598484848485  2.85714285714286 5.90909090909091  L 2.85714285714286 8.63636363636363  C 2.85714285714286 8.7594696969697  2.8218005952381 8.86600378787879  2.75111607142857 8.95596590909091  C 2.68043154761905 9.04592803030303  2.59672619047619 9.09090909090909  2.5 9.09090909090909  L 0.357142857142857 9.09090909090909  C 0.260416666666667 9.09090909090909  0.17671130952381 9.04592803030303  0.106026785714286 8.95596590909091  C 0.0353422619047619 8.86600378787879  0 8.7594696969697  0 8.63636363636363  L 0 5.90909090909091  C 0 5.78598484848485  0.0353422619047619 5.67945075757576  0.106026785714286 5.58948863636363  C 0.17671130952381 5.49952651515151  0.260416666666667 5.45454545454545  0.357142857142857 5.45454545454545  L 2.5 5.45454545454545  C 2.59672619047619 5.45454545454545  2.68043154761905 5.49952651515151  2.75111607142857 5.58948863636363  Z M 19.8939732142857 16.4985795454545  C 19.9646577380952 16.5885416666667  20 16.6950757575758  20 16.8181818181818  L 20 19.5454545454545  C 20 19.6685606060606  19.9646577380952 19.7750946969697  19.8939732142857 19.8650568181818  C 19.8232886904762 19.9550189393939  19.7395833333333 20  19.6428571428571 20  L 4.64285714285714 20  C 4.54613095238095 20  4.4624255952381 19.9550189393939  4.39174107142857 19.8650568181818  C 4.32105654761905 19.7750946969697  4.28571428571429 19.6685606060606  4.28571428571429 19.5454545454545  L 4.28571428571429 16.8181818181818  C 4.28571428571429 16.6950757575758  4.32105654761905 16.5885416666667  4.39174107142857 16.4985795454545  C 4.4624255952381 16.4086174242424  4.54613095238095 16.3636363636364  4.64285714285714 16  L 19.6428571428571 16  C 19.7395833333333 16.3636363636364  19.8232886904762 16.4086174242424  19.8939732142857 16.4985795454545  Z M 2.75111607142857 0.134943181818181  C 2.8218005952381 0.224905303030303  2.85714285714286 0.331439393939392  2.85714285714286 0.454545454545454  L 2.85714285714286 3.18181818181818  C 2.85714285714286 3.30492424242424  2.8218005952381 3.41145833333333  2.75111607142857 3.50142045454545  C 2.68043154761905 3.59138257575758  2.59672619047619 3.63636363636364  2.5 3.63636363636364  L 0.357142857142857 3.63636363636364  C 0.260416666666667 3.63636363636364  0.17671130952381 3.59138257575758  0.106026785714286 3.50142045454545  C 0.0353422619047619 3.41145833333333  0 3.30492424242424  0 3.18181818181818  L 0 0.454545454545454  C 0 0.331439393939392  0.0353422619047619 0.224905303030303  0.106026785714286 0.134943181818181  C 0.17671130952381 0.0449810606060574  0.260416666666667 0  0.357142857142857 0  L 2.5 0  C 2.59672619047619 0  2.68043154761905 0.0449810606060574  2.75111607142857 0.134943181818181  Z M 19.8939732142857 11.0440340909091  C 19.9646577380952 11.1339962121212  20 11.2405303030303  20 11.3636363636364  L 20 14.0909090909091  C 20 14.2140151515151  19.9646577380952 14.3205492424242  19.8939732142857 14.4105113636364  C 19.8232886904762 14.5004734848485  19.7395833333333 14.5454545454545  19.6428571428571 14.5454545454545  L 4.64285714285714 14.5454545454545  C 4.54613095238095 14.5454545454545  4.4624255952381 14.5004734848485  4.39174107142857 14.4105113636364  C 4.32105654761905 14.3205492424242  4.28571428571429 14.2140151515151  4.28571428571429 14.0909090909091  L 4.28571428571429 11.3636363636364  C 4.28571428571429 11.2405303030303  4.32105654761905 11.1339962121212  4.39174107142857 11.0440340909091  C 4.4624255952381 10.954071969697  4.54613095238095 10.9090909090909  4.64285714285714 11  L 19.6428571428571 11  C 19.7395833333333 10.9090909090909  19.8232886904762 10.954071969697  19.8939732142857 11.0440340909091  Z M 19.8939732142857 5.58948863636363  C 19.9646577380952 5.67945075757576  20 5.78598484848485  20 5.90909090909091  L 20 8.63636363636363  C 20 8.7594696969697  19.9646577380952 8.86600378787879  19.8939732142857 8.95596590909091  C 19.8232886904762 9.04592803030303  19.7395833333333 9.09090909090909  19.6428571428571 9  L 4.64285714285714 9  C 4.54613095238095 9.09090909090909  4.4624255952381 9.04592803030303  4.39174107142857 8.95596590909091  C 4.32105654761905 8.86600378787879  4.28571428571429 8.7594696969697  4.28571428571429 8.63636363636363  L 4.28571428571429 5.90909090909091  C 4.28571428571429 5.78598484848485  4.32105654761905 5.67945075757576  4.39174107142857 5.58948863636363  C 4.4624255952381 5.49952651515151  4.54613095238095 5.45454545454545  4.64285714285714 5.45454545454545  L 19.6428571428571 5.45454545454545  C 19.7395833333333 5.45454545454545  19.8232886904762 5.49952651515151  19.8939732142857 5.58948863636363  Z M 19.8939732142857 0.134943181818181  C 19.9646577380952 0.224905303030303  20 0.331439393939392  20 0.454545454545454  L 20 3.18181818181818  C 20 3.30492424242424  19.9646577380952 3.41145833333333  19.8939732142857 3.50142045454545  C 19.8232886904762 3.59138257575758  19.7395833333333 3.63636363636364  19.6428571428571 4  L 4.64285714285714 4  C 4.54613095238095 3.63636363636364  4.4624255952381 3.59138257575758  4.39174107142857 3.50142045454545  C 4.32105654761905 3.41145833333333  4.28571428571429 3.30492424242424  4.28571428571429 3.18181818181818  L 4.28571428571429 0.454545454545454  C 4.28571428571429 0.331439393939392  4.32105654761905 0.224905303030303  4.39174107142857 0.134943181818181  C 4.4624255952381 0.0449810606060574  4.54613095238095 0  4.64285714285714 0  L 19.6428571428571 0  C 19.7395833333333 0  19.8232886904762 0.0449810606060574  19.8939732142857 0.134943181818181  Z " fill-rule="nonzero" fill="#000000" stroke="none" fill-opacity="0.419607843137255" transform="matrix(1 0 0 1 478 271 )" />
  </g>
</svg>