<?xml version="1.0" encoding="utf-8"?>
<svg version="1.1" xmlns:xlink="http://www.w3.org/1999/xlink" width="20px" height="25px" xmlns="http://www.w3.org/2000/svg">
  <defs>
    <linearGradient gradientUnits="userSpaceOnUse" x1="263" y1="446" x2="263" y2="471" id="LinearGradient21">
      <stop id="Stop22" stop-color="#ffffff" offset="0" />
      <stop id="Stop23" stop-color="#f2f2f2" offset="0" />
      <stop id="Stop24" stop-color="#e4e4e4" offset="1" />
      <stop id="Stop25" stop-color="#ffffff" offset="1" />
    </linearGradient>
  </defs>
  <g transform="matrix(1 0 0 1 -253 -446 )">
    <path d="M 257.5 470.5  L 272.5 470.5  L 272.5 454.5  L 264.5 446.5  L 253.5 446.5  L 253.5 466.5  L 255.5 466.5  L 255.5 468.5  L 257.5 468.5  L 257.5 470.5  Z " fill-rule="nonzero" fill="url(#LinearGradient21)" stroke="none" />
    <path d="M 257.5 470.5  L 272.5 470.5  L 272.5 454.5  L 264.5 446.5  L 253.5 446.5  L 253.5 466.5  L 255.5 466.5  L 255.5 468.5  L 257.5 468.5  L 257.5 470.5  Z " stroke-width="1" stroke="#797979" fill="none" />
    <path d="M 268.5 452.5  L 270.5 453  L 270.5 468.5  L 258 468.5  M 264.5 447  L 264.5 450.5  L 268.5 450.5  L 268.5 466.5  L 256 466.5  M 272 454.5  L 270.5 454.5  " stroke-width="1" stroke="#797979" fill="none" />
  </g>
</svg>