<?xml version="1.0" encoding="utf-8"?>
<svg version="1.1" xmlns:xlink="http://www.w3.org/1999/xlink" width="179px" height="223px" xmlns="http://www.w3.org/2000/svg">
  <g transform="matrix(1 0 0 1 -263 -602 )">
    <path d="M 134.716145833333 8.46205357142858  L 171.075520833333 47.2879464285714  C 173.250868055556 49.6108630952381  175.115451388889 52.7633928571429  176.669270833333 56.7455357142857  C 178.223090277778 60.7276785714286  179 64.3779761904762  179 67.6964285714286  L 179 211.053571428571  C 179 214.372023809524  177.912326388889 217.192708333333  175.736979166667 219.515625  C 173.561631944444 221.838541666667  170.920138888889 223  167.8125 223  L 11.1875 223  C 8.07986111111111 223  5.43836805555556 221.838541666667  3.26302083333333 219.515625  C 1.08767361111111 217.192708333333  0 214.372023809524  0 211.053571428571  L 0 11.9464285714286  C 0 8.62797619047618  1.08767361111111 5.80729166666666  3.26302083333333 3.484375  C 5.43836805555556 1.16145833333334  8.07986111111111 0  11.1875 0  L 115.604166666667 0  C 118.711805555556 0  122.130208333333 0.829613095238105  125.859375 2.48883928571429  C 129.588541666667 4.14806547619047  132.540798611111 6.1391369047619  134.716145833333 8.46205357142858  Z M 124.111328125 19.6618303571429  C 123.179036458333 18.6662946428571  121.586371527778 17.7537202380952  119 16.9241071428571  L 119 64  L 163.151041666667 64  C 162.374131944444 61.3084077380952  161.51953125 59.6077008928571  160.587239583333 58.6121651785714  L 124.111328125 19.6618303571429  Z M 15 207  L 164 207  L 164 80  L 115.604166666667 80  C 112.496527777778 79.6428571428571  109.855034722222 78.4813988095238  107.6796875 76.1584821428571  C 105.504340277778 73.8355654761905  104.416666666667 71.0148809523809  104 67.6964285714286  L 104 16  L 15 16  L 15 207  Z M 111.875 111.5  L 149 151.321428571429  L 149 191  L 30 191  L 30 167.25  L 52.2083333333333 143.357142857143  L 67.125 159.285714285714  L 111.875 111.5  Z M 68.0572916666667 120.459821428571  C 63.7065972222222 125.105654761905  58.4236111111111 127.428571428571  52.2083333333333 127.428571428571  C 45.9930555555556 127.428571428571  40.7100694444445 125.105654761905  36.359375 120.459821428571  C 32.0086805555556 115.813988095238  29.8333333333333 110.172619047619  29.8333333333333 103.535714285714  C 29.8333333333333 96.8988095238095  32.0086805555556 91.2574404761905  36.359375 86.6116071428571  C 40.7100694444445 81.9657738095238  45.9930555555556 79.6428571428571  52.2083333333333 79.6428571428571  C 58.4236111111111 79.6428571428571  63.7065972222222 81.9657738095238  68.0572916666667 86.6116071428571  C 72.4079861111111 91.2574404761905  74.5833333333333 96.8988095238095  74.5833333333333 103.535714285714  C 74.5833333333333 110.172619047619  72.4079861111111 115.813988095238  68.0572916666667 120.459821428571  Z " fill-rule="nonzero" fill="#757070" stroke="none" fill-opacity="0.623529411764706" transform="matrix(1 0 0 1 263 602 )" />
  </g>
</svg>